<svg xmlns="http://www.w3.org/2000/svg" width="128" height="128" viewBox="0 0 128 128">
  <defs>
    <style>
      .cls-1 {
        fill: none;
        stroke: #000;
        stroke-width: 8px;
      }

      .cls-1, .cls-2 {
        fill-rule: evenodd;
      }
    </style>
  </defs>
  <path id="椭圆_1" data-name="椭圆 1" class="cls-1" d="M64,33A32,32,0,1,1,32,65,32,32,0,0,1,64,33Zm-15.461.079"/>
  <path id="圆角矩形_1" data-name="圆角矩形 1" d="M62,9h4a8,8,0,0,1,8,8V33a0,0,0,0,1,0,0H54a0,0,0,0,1,0,0V17A8,8,0,0,1,62,9Z"/>
  <path id="圆角矩形_1_拷贝" data-name="圆角矩形 1 拷贝" d="M54,97H74a0,0,0,0,1,0,0v16a8,8,0,0,1-8,8H62a8,8,0,0,1-8-8V97A0,0,0,0,1,54,97Z"/>
  <path id="圆角矩形_2" data-name="圆角矩形 2" d="M96,56h16a8,8,0,0,1,8,8v4a8,8,0,0,1-8,8H96a0,0,0,0,1,0,0V56A0,0,0,0,1,96,56Z"/>
  <path id="圆角矩形_2_拷贝" data-name="圆角矩形 2 拷贝" d="M16,56H32a0,0,0,0,1,0,0V76a0,0,0,0,1,0,0H16a8,8,0,0,1-8-8V64A8,8,0,0,1,16,56Z"/>
  <path id="圆角矩形_2_拷贝_2" data-name="圆角矩形 2 拷贝 2" class="cls-2" d="M36.243,23.1L47.556,34.414,33.414,48.556,22.1,37.243a8,8,0,0,1,0-11.314L24.929,23.1A8,8,0,0,1,36.243,23.1Z"/>
  <path id="圆角矩形_2_拷贝_3" data-name="圆角矩形 2 拷贝 3" class="cls-2" d="M91.757,23.1L80.444,34.414,94.586,48.556,105.9,37.243a8,8,0,0,0,0-11.314L103.071,23.1A8,8,0,0,0,91.757,23.1Z"/>
  <path id="圆角矩形_2_拷贝_4" data-name="圆角矩形 2 拷贝 4" class="cls-2" d="M91.757,106.9L80.444,95.586,94.586,81.444,105.9,92.757a8,8,0,0,1,0,11.314l-2.828,2.828A8,8,0,0,1,91.757,106.9Z"/>
  <path id="圆角矩形_2_拷贝_5" data-name="圆角矩形 2 拷贝 5" class="cls-2" d="M36.243,106.9L47.556,95.586,33.414,81.444,22.1,92.757a8,8,0,0,0,0,11.314l2.828,2.828A8,8,0,0,0,36.243,106.9Z"/>
</svg>
