<svg xmlns="http://www.w3.org/2000/svg" width="128" height="128" viewBox="0 0 128 128">
  <defs>
    <style>
      .cls-1 {
        fill-rule: evenodd;
      }
    </style>
  </defs>
  <rect id="圆角矩形_1" data-name="圆角矩形 1" x="9.125" y="48.125" width="47.375" height="8.625" rx="4" ry="4"/>
  <path id="圆角矩形_1_拷贝" data-name="圆角矩形 1 拷贝" class="cls-1" d="M68.746,17.024L56.768,53.889a4.307,4.307,0,1,1-8.192-2.662L60.554,14.362A4.307,4.307,0,0,1,68.746,17.024Z"/>
  <path id="圆角矩形_1_拷贝_2" data-name="圆角矩形 1 拷贝 2" class="cls-1" d="M68.612,14.362L80.59,51.227A4.307,4.307,0,1,1,72.4,53.889L60.42,17.024A4.307,4.307,0,0,1,68.612,14.362Z"/>
  <path id="圆角矩形_1_拷贝_2-2" data-name="圆角矩形 1 拷贝 2" class="cls-1" d="M87.993,73.581l11.978,36.865a4.307,4.307,0,0,1-8.192,2.662L79.8,76.243A4.307,4.307,0,1,1,87.993,73.581Z"/>
  <path id="圆角矩形_1-2" data-name="圆角矩形 1" class="cls-1" d="M75.582,48.129h39.369a4,4,0,0,1,4,4v0.619a4,4,0,0,1-4,4H75.582a4,4,0,0,1-4-4V52.129A4,4,0,0,1,75.582,48.129Z"/>
  <path id="圆角矩形_1-3" data-name="圆角矩形 1" class="cls-1" d="M16.442,49.4L47.8,72.181a4.307,4.307,0,1,1-5.063,6.969L11.379,56.366A4.307,4.307,0,1,1,16.442,49.4Z"/>
  <path id="圆角矩形_1-4" data-name="圆角矩形 1" class="cls-1" d="M67.047,86.005l31.359,22.784a4.307,4.307,0,1,1-5.063,6.968L61.984,92.974A4.307,4.307,0,0,1,67.047,86.005Z"/>
  <path id="圆角矩形_1-5" data-name="圆角矩形 1" class="cls-1" d="M112.724,49.4L81.365,72.181a4.307,4.307,0,0,0,5.063,6.969l31.359-22.783A4.307,4.307,0,1,0,112.724,49.4Z"/>
  <path id="圆角矩形_1-6" data-name="圆角矩形 1" class="cls-1" d="M62.119,86.005L30.76,108.789a4.307,4.307,0,1,0,5.063,6.968L67.182,92.974A4.307,4.307,0,1,0,62.119,86.005Z"/>
  <path id="圆角矩形_1_拷贝-2" data-name="圆角矩形 1 拷贝" class="cls-1" d="M49.365,76.243L37.387,113.108a4.307,4.307,0,0,1-8.192-2.662L41.173,73.581A4.307,4.307,0,1,1,49.365,76.243Z"/>
</svg>
